<mxfile host="app.diagrams.net" modified="2023-09-28T22:07:43.390Z" agent="Mozilla/5.0 (Windows NT 10.0; Win64; x64) AppleWebKit/537.36 (KHTML, like Gecko) Chrome/116.0.0.0 Safari/537.36 OPR/102.0.0.0" version="22.0.0" etag="JQrcZxqHNg_6oKGfxVpV" type="github">
  <diagram name="Страница — 1" id="651mwapyIL5BoA6nAUkZ">
    <mxGraphModel>
      <root>
        <mxCell id="0" />
        <mxCell id="1" parent="0" />
      </root>
    </mxGraphModel>
  </diagram>
</mxfile>
